<mxfile host="app.diagrams.net" modified="2023-08-01T17:51:34.867Z" agent="Mozilla/5.0 (Windows NT 10.0; Win64; x64) AppleWebKit/537.36 (KHTML, like Gecko) Chrome/114.0.0.0 Safari/537.36 OPR/100.0.0.0" etag="tRSc3_GTFMlFm6ovzgJa" version="21.6.6" type="github">
  <diagram id="C5RBs43oDa-KdzZeNtuy" name="Page-1">
    <mxGraphModel dx="2670" dy="2094" grid="1" gridSize="10" guides="1" tooltips="1" connect="1" arrows="1" fold="1" page="1" pageScale="1" pageWidth="827" pageHeight="1169" math="0" shadow="0">
      <root>
        <mxCell id="WIyWlLk6GJQsqaUBKTNV-0" />
        <mxCell id="WIyWlLk6GJQsqaUBKTNV-1" parent="WIyWlLk6GJQsqaUBKTNV-0" />
        <mxCell id="I92HgwxgGMUfvTsr4K6W-2" value="" style="edgeStyle=orthogonalEdgeStyle;rounded=0;orthogonalLoop=1;jettySize=auto;html=1;" edge="1" parent="WIyWlLk6GJQsqaUBKTNV-1" source="I92HgwxgGMUfvTsr4K6W-0" target="I92HgwxgGMUfvTsr4K6W-1">
          <mxGeometry relative="1" as="geometry" />
        </mxCell>
        <mxCell id="I92HgwxgGMUfvTsr4K6W-0" value="Mulai" style="strokeWidth=2;html=1;shape=mxgraph.flowchart.terminator;whiteSpace=wrap;" vertex="1" parent="WIyWlLk6GJQsqaUBKTNV-1">
          <mxGeometry x="80" y="-1120" width="80" height="40" as="geometry" />
        </mxCell>
        <mxCell id="I92HgwxgGMUfvTsr4K6W-4" value="" style="edgeStyle=orthogonalEdgeStyle;rounded=0;orthogonalLoop=1;jettySize=auto;html=1;" edge="1" parent="WIyWlLk6GJQsqaUBKTNV-1" source="I92HgwxgGMUfvTsr4K6W-1" target="I92HgwxgGMUfvTsr4K6W-3">
          <mxGeometry relative="1" as="geometry" />
        </mxCell>
        <mxCell id="I92HgwxgGMUfvTsr4K6W-1" value="Menu" style="strokeWidth=2;html=1;shape=mxgraph.flowchart.display;whiteSpace=wrap;" vertex="1" parent="WIyWlLk6GJQsqaUBKTNV-1">
          <mxGeometry x="80" y="-1040" width="80" height="40" as="geometry" />
        </mxCell>
        <mxCell id="I92HgwxgGMUfvTsr4K6W-5" style="edgeStyle=orthogonalEdgeStyle;rounded=0;orthogonalLoop=1;jettySize=auto;html=1;entryX=0.5;entryY=0;entryDx=0;entryDy=0;exitX=0;exitY=0.5;exitDx=0;exitDy=0;exitPerimeter=0;" edge="1" parent="WIyWlLk6GJQsqaUBKTNV-1" source="I92HgwxgGMUfvTsr4K6W-3" target="I92HgwxgGMUfvTsr4K6W-83">
          <mxGeometry relative="1" as="geometry">
            <Array as="points">
              <mxPoint y="-920" />
            </Array>
          </mxGeometry>
        </mxCell>
        <mxCell id="I92HgwxgGMUfvTsr4K6W-117" value="Tidak" style="edgeLabel;html=1;align=center;verticalAlign=middle;resizable=0;points=[];" vertex="1" connectable="0" parent="I92HgwxgGMUfvTsr4K6W-5">
          <mxGeometry x="-0.5805" y="1" relative="1" as="geometry">
            <mxPoint as="offset" />
          </mxGeometry>
        </mxCell>
        <mxCell id="I92HgwxgGMUfvTsr4K6W-9" value="" style="edgeStyle=orthogonalEdgeStyle;rounded=0;orthogonalLoop=1;jettySize=auto;html=1;" edge="1" parent="WIyWlLk6GJQsqaUBKTNV-1" source="I92HgwxgGMUfvTsr4K6W-3" target="I92HgwxgGMUfvTsr4K6W-6">
          <mxGeometry relative="1" as="geometry" />
        </mxCell>
        <mxCell id="I92HgwxgGMUfvTsr4K6W-118" value="Ya" style="edgeLabel;html=1;align=center;verticalAlign=middle;resizable=0;points=[];" vertex="1" connectable="0" parent="I92HgwxgGMUfvTsr4K6W-9">
          <mxGeometry x="-0.1517" relative="1" as="geometry">
            <mxPoint as="offset" />
          </mxGeometry>
        </mxCell>
        <mxCell id="I92HgwxgGMUfvTsr4K6W-3" value="Pilih &lt;br&gt;Game?" style="strokeWidth=2;html=1;shape=mxgraph.flowchart.decision;whiteSpace=wrap;" vertex="1" parent="WIyWlLk6GJQsqaUBKTNV-1">
          <mxGeometry x="80" y="-960" width="80" height="80" as="geometry" />
        </mxCell>
        <mxCell id="I92HgwxgGMUfvTsr4K6W-10" value="" style="edgeStyle=orthogonalEdgeStyle;rounded=0;orthogonalLoop=1;jettySize=auto;html=1;" edge="1" parent="WIyWlLk6GJQsqaUBKTNV-1" source="I92HgwxgGMUfvTsr4K6W-6" target="I92HgwxgGMUfvTsr4K6W-7">
          <mxGeometry relative="1" as="geometry" />
        </mxCell>
        <mxCell id="I92HgwxgGMUfvTsr4K6W-6" value="Stage 1" style="shape=parallelogram;html=1;strokeWidth=2;perimeter=parallelogramPerimeter;whiteSpace=wrap;rounded=1;arcSize=12;size=0.23;" vertex="1" parent="WIyWlLk6GJQsqaUBKTNV-1">
          <mxGeometry x="80" y="-840" width="80" height="40" as="geometry" />
        </mxCell>
        <mxCell id="I92HgwxgGMUfvTsr4K6W-11" value="" style="edgeStyle=orthogonalEdgeStyle;rounded=0;orthogonalLoop=1;jettySize=auto;html=1;" edge="1" parent="WIyWlLk6GJQsqaUBKTNV-1" source="I92HgwxgGMUfvTsr4K6W-7" target="I92HgwxgGMUfvTsr4K6W-8">
          <mxGeometry relative="1" as="geometry" />
        </mxCell>
        <mxCell id="I92HgwxgGMUfvTsr4K6W-7" value="Game berlangsung" style="rounded=1;whiteSpace=wrap;html=1;absoluteArcSize=1;arcSize=14;strokeWidth=2;" vertex="1" parent="WIyWlLk6GJQsqaUBKTNV-1">
          <mxGeometry x="80" y="-760" width="80" height="40" as="geometry" />
        </mxCell>
        <mxCell id="I92HgwxgGMUfvTsr4K6W-14" value="" style="edgeStyle=orthogonalEdgeStyle;rounded=0;orthogonalLoop=1;jettySize=auto;html=1;" edge="1" parent="WIyWlLk6GJQsqaUBKTNV-1" source="I92HgwxgGMUfvTsr4K6W-8" target="I92HgwxgGMUfvTsr4K6W-12">
          <mxGeometry relative="1" as="geometry" />
        </mxCell>
        <mxCell id="I92HgwxgGMUfvTsr4K6W-8" value="Hasil &lt;br&gt;Game" style="shape=parallelogram;html=1;strokeWidth=2;perimeter=parallelogramPerimeter;whiteSpace=wrap;rounded=1;arcSize=12;size=0.23;" vertex="1" parent="WIyWlLk6GJQsqaUBKTNV-1">
          <mxGeometry x="80" y="-680" width="80" height="40" as="geometry" />
        </mxCell>
        <mxCell id="I92HgwxgGMUfvTsr4K6W-13" style="edgeStyle=orthogonalEdgeStyle;rounded=0;orthogonalLoop=1;jettySize=auto;html=1;entryX=1;entryY=0.5;entryDx=0;entryDy=0;" edge="1" parent="WIyWlLk6GJQsqaUBKTNV-1" source="I92HgwxgGMUfvTsr4K6W-12" target="I92HgwxgGMUfvTsr4K6W-6">
          <mxGeometry relative="1" as="geometry">
            <Array as="points">
              <mxPoint x="180" y="-560" />
              <mxPoint x="180" y="-820" />
            </Array>
          </mxGeometry>
        </mxCell>
        <mxCell id="I92HgwxgGMUfvTsr4K6W-114" value="Tidak" style="edgeLabel;html=1;align=center;verticalAlign=middle;resizable=0;points=[];" vertex="1" connectable="0" parent="I92HgwxgGMUfvTsr4K6W-13">
          <mxGeometry x="-0.5923" y="-1" relative="1" as="geometry">
            <mxPoint as="offset" />
          </mxGeometry>
        </mxCell>
        <mxCell id="I92HgwxgGMUfvTsr4K6W-87" value="" style="edgeStyle=orthogonalEdgeStyle;rounded=0;orthogonalLoop=1;jettySize=auto;html=1;" edge="1" parent="WIyWlLk6GJQsqaUBKTNV-1" source="I92HgwxgGMUfvTsr4K6W-12" target="I92HgwxgGMUfvTsr4K6W-86">
          <mxGeometry relative="1" as="geometry" />
        </mxCell>
        <mxCell id="I92HgwxgGMUfvTsr4K6W-110" value="Ya" style="edgeLabel;html=1;align=center;verticalAlign=middle;resizable=0;points=[];" vertex="1" connectable="0" parent="I92HgwxgGMUfvTsr4K6W-87">
          <mxGeometry x="-0.3686" y="-2" relative="1" as="geometry">
            <mxPoint y="6" as="offset" />
          </mxGeometry>
        </mxCell>
        <mxCell id="I92HgwxgGMUfvTsr4K6W-12" value="Berhasil?" style="strokeWidth=2;html=1;shape=mxgraph.flowchart.decision;whiteSpace=wrap;" vertex="1" parent="WIyWlLk6GJQsqaUBKTNV-1">
          <mxGeometry x="80" y="-600" width="80" height="80" as="geometry" />
        </mxCell>
        <mxCell id="I92HgwxgGMUfvTsr4K6W-60" value="" style="edgeStyle=orthogonalEdgeStyle;rounded=0;orthogonalLoop=1;jettySize=auto;html=1;" edge="1" parent="WIyWlLk6GJQsqaUBKTNV-1" source="I92HgwxgGMUfvTsr4K6W-31">
          <mxGeometry relative="1" as="geometry">
            <mxPoint x="120" y="-320" as="targetPoint" />
          </mxGeometry>
        </mxCell>
        <mxCell id="I92HgwxgGMUfvTsr4K6W-31" value="Isi&lt;br&gt;Padlet" style="shape=parallelogram;html=1;strokeWidth=2;perimeter=parallelogramPerimeter;whiteSpace=wrap;rounded=1;arcSize=12;size=0.23;" vertex="1" parent="WIyWlLk6GJQsqaUBKTNV-1">
          <mxGeometry x="80" y="-400" width="80" height="40" as="geometry" />
        </mxCell>
        <mxCell id="I92HgwxgGMUfvTsr4K6W-33" value="" style="edgeStyle=orthogonalEdgeStyle;rounded=0;orthogonalLoop=1;jettySize=auto;html=1;" edge="1" source="I92HgwxgGMUfvTsr4K6W-34" target="I92HgwxgGMUfvTsr4K6W-36" parent="WIyWlLk6GJQsqaUBKTNV-1">
          <mxGeometry relative="1" as="geometry" />
        </mxCell>
        <mxCell id="I92HgwxgGMUfvTsr4K6W-34" value="Stage 2" style="shape=parallelogram;html=1;strokeWidth=2;perimeter=parallelogramPerimeter;whiteSpace=wrap;rounded=1;arcSize=12;size=0.23;" vertex="1" parent="WIyWlLk6GJQsqaUBKTNV-1">
          <mxGeometry x="200" y="-840" width="80" height="40" as="geometry" />
        </mxCell>
        <mxCell id="I92HgwxgGMUfvTsr4K6W-35" value="" style="edgeStyle=orthogonalEdgeStyle;rounded=0;orthogonalLoop=1;jettySize=auto;html=1;" edge="1" source="I92HgwxgGMUfvTsr4K6W-36" target="I92HgwxgGMUfvTsr4K6W-38" parent="WIyWlLk6GJQsqaUBKTNV-1">
          <mxGeometry relative="1" as="geometry" />
        </mxCell>
        <mxCell id="I92HgwxgGMUfvTsr4K6W-36" value="Game berlangsung" style="rounded=1;whiteSpace=wrap;html=1;absoluteArcSize=1;arcSize=14;strokeWidth=2;" vertex="1" parent="WIyWlLk6GJQsqaUBKTNV-1">
          <mxGeometry x="200" y="-760" width="80" height="40" as="geometry" />
        </mxCell>
        <mxCell id="I92HgwxgGMUfvTsr4K6W-37" value="" style="edgeStyle=orthogonalEdgeStyle;rounded=0;orthogonalLoop=1;jettySize=auto;html=1;" edge="1" source="I92HgwxgGMUfvTsr4K6W-38" target="I92HgwxgGMUfvTsr4K6W-41" parent="WIyWlLk6GJQsqaUBKTNV-1">
          <mxGeometry relative="1" as="geometry" />
        </mxCell>
        <mxCell id="I92HgwxgGMUfvTsr4K6W-38" value="Hasil &lt;br&gt;Game" style="shape=parallelogram;html=1;strokeWidth=2;perimeter=parallelogramPerimeter;whiteSpace=wrap;rounded=1;arcSize=12;size=0.23;" vertex="1" parent="WIyWlLk6GJQsqaUBKTNV-1">
          <mxGeometry x="200" y="-680" width="80" height="40" as="geometry" />
        </mxCell>
        <mxCell id="I92HgwxgGMUfvTsr4K6W-39" style="edgeStyle=orthogonalEdgeStyle;rounded=0;orthogonalLoop=1;jettySize=auto;html=1;entryX=1;entryY=0.5;entryDx=0;entryDy=0;" edge="1" source="I92HgwxgGMUfvTsr4K6W-41" target="I92HgwxgGMUfvTsr4K6W-34" parent="WIyWlLk6GJQsqaUBKTNV-1">
          <mxGeometry relative="1" as="geometry">
            <Array as="points">
              <mxPoint x="300" y="-560" />
              <mxPoint x="300" y="-820" />
            </Array>
          </mxGeometry>
        </mxCell>
        <mxCell id="I92HgwxgGMUfvTsr4K6W-115" value="Tidak" style="edgeLabel;html=1;align=center;verticalAlign=middle;resizable=0;points=[];" vertex="1" connectable="0" parent="I92HgwxgGMUfvTsr4K6W-39">
          <mxGeometry x="-0.6012" y="1" relative="1" as="geometry">
            <mxPoint as="offset" />
          </mxGeometry>
        </mxCell>
        <mxCell id="I92HgwxgGMUfvTsr4K6W-102" value="" style="edgeStyle=orthogonalEdgeStyle;rounded=0;orthogonalLoop=1;jettySize=auto;html=1;" edge="1" parent="WIyWlLk6GJQsqaUBKTNV-1" source="I92HgwxgGMUfvTsr4K6W-41" target="I92HgwxgGMUfvTsr4K6W-100">
          <mxGeometry relative="1" as="geometry" />
        </mxCell>
        <mxCell id="I92HgwxgGMUfvTsr4K6W-112" value="Ya" style="edgeLabel;html=1;align=center;verticalAlign=middle;resizable=0;points=[];" vertex="1" connectable="0" parent="I92HgwxgGMUfvTsr4K6W-102">
          <mxGeometry x="0.0299" y="2" relative="1" as="geometry">
            <mxPoint as="offset" />
          </mxGeometry>
        </mxCell>
        <mxCell id="I92HgwxgGMUfvTsr4K6W-41" value="Berhasil?" style="strokeWidth=2;html=1;shape=mxgraph.flowchart.decision;whiteSpace=wrap;" vertex="1" parent="WIyWlLk6GJQsqaUBKTNV-1">
          <mxGeometry x="200" y="-600" width="80" height="80" as="geometry" />
        </mxCell>
        <mxCell id="I92HgwxgGMUfvTsr4K6W-42" value="Isi &lt;br&gt;Padlet" style="shape=parallelogram;html=1;strokeWidth=2;perimeter=parallelogramPerimeter;whiteSpace=wrap;rounded=1;arcSize=12;size=0.23;" vertex="1" parent="WIyWlLk6GJQsqaUBKTNV-1">
          <mxGeometry x="200" y="-400" width="80" height="40" as="geometry" />
        </mxCell>
        <mxCell id="I92HgwxgGMUfvTsr4K6W-58" value="" style="edgeStyle=orthogonalEdgeStyle;rounded=0;orthogonalLoop=1;jettySize=auto;html=1;entryX=0.5;entryY=0;entryDx=0;entryDy=0;" edge="1" parent="WIyWlLk6GJQsqaUBKTNV-1" target="I92HgwxgGMUfvTsr4K6W-34">
          <mxGeometry relative="1" as="geometry">
            <mxPoint x="240" y="-880" as="sourcePoint" />
          </mxGeometry>
        </mxCell>
        <mxCell id="I92HgwxgGMUfvTsr4K6W-62" value="" style="edgeStyle=orthogonalEdgeStyle;rounded=0;orthogonalLoop=1;jettySize=auto;html=1;" edge="1" parent="WIyWlLk6GJQsqaUBKTNV-1">
          <mxGeometry relative="1" as="geometry">
            <mxPoint x="240" y="-360" as="sourcePoint" />
            <mxPoint x="240" y="-320" as="targetPoint" />
          </mxGeometry>
        </mxCell>
        <mxCell id="I92HgwxgGMUfvTsr4K6W-64" value="" style="edgeStyle=orthogonalEdgeStyle;rounded=0;orthogonalLoop=1;jettySize=auto;html=1;" edge="1" source="I92HgwxgGMUfvTsr4K6W-65" target="I92HgwxgGMUfvTsr4K6W-67" parent="WIyWlLk6GJQsqaUBKTNV-1">
          <mxGeometry relative="1" as="geometry" />
        </mxCell>
        <mxCell id="I92HgwxgGMUfvTsr4K6W-65" value="Stage 3" style="shape=parallelogram;html=1;strokeWidth=2;perimeter=parallelogramPerimeter;whiteSpace=wrap;rounded=1;arcSize=12;size=0.23;" vertex="1" parent="WIyWlLk6GJQsqaUBKTNV-1">
          <mxGeometry x="323" y="-840" width="80" height="40" as="geometry" />
        </mxCell>
        <mxCell id="I92HgwxgGMUfvTsr4K6W-66" value="" style="edgeStyle=orthogonalEdgeStyle;rounded=0;orthogonalLoop=1;jettySize=auto;html=1;" edge="1" source="I92HgwxgGMUfvTsr4K6W-67" target="I92HgwxgGMUfvTsr4K6W-69" parent="WIyWlLk6GJQsqaUBKTNV-1">
          <mxGeometry relative="1" as="geometry" />
        </mxCell>
        <mxCell id="I92HgwxgGMUfvTsr4K6W-67" value="Game berlangsung" style="rounded=1;whiteSpace=wrap;html=1;absoluteArcSize=1;arcSize=14;strokeWidth=2;" vertex="1" parent="WIyWlLk6GJQsqaUBKTNV-1">
          <mxGeometry x="323" y="-760" width="80" height="40" as="geometry" />
        </mxCell>
        <mxCell id="I92HgwxgGMUfvTsr4K6W-68" value="" style="edgeStyle=orthogonalEdgeStyle;rounded=0;orthogonalLoop=1;jettySize=auto;html=1;" edge="1" source="I92HgwxgGMUfvTsr4K6W-69" target="I92HgwxgGMUfvTsr4K6W-72" parent="WIyWlLk6GJQsqaUBKTNV-1">
          <mxGeometry relative="1" as="geometry" />
        </mxCell>
        <mxCell id="I92HgwxgGMUfvTsr4K6W-69" value="Hasil &lt;br&gt;Game" style="shape=parallelogram;html=1;strokeWidth=2;perimeter=parallelogramPerimeter;whiteSpace=wrap;rounded=1;arcSize=12;size=0.23;" vertex="1" parent="WIyWlLk6GJQsqaUBKTNV-1">
          <mxGeometry x="323" y="-680" width="80" height="40" as="geometry" />
        </mxCell>
        <mxCell id="I92HgwxgGMUfvTsr4K6W-70" style="edgeStyle=orthogonalEdgeStyle;rounded=0;orthogonalLoop=1;jettySize=auto;html=1;entryX=1;entryY=0.5;entryDx=0;entryDy=0;" edge="1" source="I92HgwxgGMUfvTsr4K6W-72" target="I92HgwxgGMUfvTsr4K6W-65" parent="WIyWlLk6GJQsqaUBKTNV-1">
          <mxGeometry relative="1" as="geometry">
            <Array as="points">
              <mxPoint x="423" y="-560" />
              <mxPoint x="423" y="-820" />
            </Array>
          </mxGeometry>
        </mxCell>
        <mxCell id="I92HgwxgGMUfvTsr4K6W-116" value="Tidak" style="edgeLabel;html=1;align=center;verticalAlign=middle;resizable=0;points=[];" vertex="1" connectable="0" parent="I92HgwxgGMUfvTsr4K6W-70">
          <mxGeometry x="-0.5966" relative="1" as="geometry">
            <mxPoint as="offset" />
          </mxGeometry>
        </mxCell>
        <mxCell id="I92HgwxgGMUfvTsr4K6W-103" value="" style="edgeStyle=orthogonalEdgeStyle;rounded=0;orthogonalLoop=1;jettySize=auto;html=1;" edge="1" parent="WIyWlLk6GJQsqaUBKTNV-1" source="I92HgwxgGMUfvTsr4K6W-72" target="I92HgwxgGMUfvTsr4K6W-101">
          <mxGeometry relative="1" as="geometry" />
        </mxCell>
        <mxCell id="I92HgwxgGMUfvTsr4K6W-113" value="Ya" style="edgeLabel;html=1;align=center;verticalAlign=middle;resizable=0;points=[];" vertex="1" connectable="0" parent="I92HgwxgGMUfvTsr4K6W-103">
          <mxGeometry x="0.0912" relative="1" as="geometry">
            <mxPoint as="offset" />
          </mxGeometry>
        </mxCell>
        <mxCell id="I92HgwxgGMUfvTsr4K6W-72" value="Berhasil?" style="strokeWidth=2;html=1;shape=mxgraph.flowchart.decision;whiteSpace=wrap;" vertex="1" parent="WIyWlLk6GJQsqaUBKTNV-1">
          <mxGeometry x="323" y="-600" width="80" height="80" as="geometry" />
        </mxCell>
        <mxCell id="I92HgwxgGMUfvTsr4K6W-73" value="Isi &lt;br&gt;Padlet" style="shape=parallelogram;html=1;strokeWidth=2;perimeter=parallelogramPerimeter;whiteSpace=wrap;rounded=1;arcSize=12;size=0.23;" vertex="1" parent="WIyWlLk6GJQsqaUBKTNV-1">
          <mxGeometry x="323" y="-400" width="80" height="40" as="geometry" />
        </mxCell>
        <mxCell id="I92HgwxgGMUfvTsr4K6W-74" value="" style="edgeStyle=orthogonalEdgeStyle;rounded=0;orthogonalLoop=1;jettySize=auto;html=1;entryX=0.5;entryY=0;entryDx=0;entryDy=0;" edge="1" target="I92HgwxgGMUfvTsr4K6W-65" parent="WIyWlLk6GJQsqaUBKTNV-1">
          <mxGeometry relative="1" as="geometry">
            <mxPoint x="363" y="-880" as="sourcePoint" />
          </mxGeometry>
        </mxCell>
        <mxCell id="I92HgwxgGMUfvTsr4K6W-76" value="" style="edgeStyle=orthogonalEdgeStyle;rounded=0;orthogonalLoop=1;jettySize=auto;html=1;entryX=1;entryY=0.5;entryDx=0;entryDy=0;entryPerimeter=0;" edge="1" parent="WIyWlLk6GJQsqaUBKTNV-1" target="I92HgwxgGMUfvTsr4K6W-108">
          <mxGeometry relative="1" as="geometry">
            <mxPoint x="363" y="-360" as="sourcePoint" />
            <mxPoint x="363" y="-320" as="targetPoint" />
            <Array as="points">
              <mxPoint x="363" y="-220" />
            </Array>
          </mxGeometry>
        </mxCell>
        <mxCell id="I92HgwxgGMUfvTsr4K6W-106" value="" style="edgeStyle=orthogonalEdgeStyle;rounded=0;orthogonalLoop=1;jettySize=auto;html=1;entryX=0.5;entryY=0;entryDx=0;entryDy=0;" edge="1" parent="WIyWlLk6GJQsqaUBKTNV-1" source="I92HgwxgGMUfvTsr4K6W-83" target="I92HgwxgGMUfvTsr4K6W-84">
          <mxGeometry relative="1" as="geometry" />
        </mxCell>
        <mxCell id="I92HgwxgGMUfvTsr4K6W-83" value="Quiz" style="shape=parallelogram;html=1;strokeWidth=2;perimeter=parallelogramPerimeter;whiteSpace=wrap;rounded=1;arcSize=12;size=0.23;" vertex="1" parent="WIyWlLk6GJQsqaUBKTNV-1">
          <mxGeometry x="-40" y="-880" width="80" height="40" as="geometry" />
        </mxCell>
        <mxCell id="I92HgwxgGMUfvTsr4K6W-107" value="" style="edgeStyle=orthogonalEdgeStyle;rounded=0;orthogonalLoop=1;jettySize=auto;html=1;" edge="1" parent="WIyWlLk6GJQsqaUBKTNV-1" source="I92HgwxgGMUfvTsr4K6W-84" target="I92HgwxgGMUfvTsr4K6W-85">
          <mxGeometry relative="1" as="geometry" />
        </mxCell>
        <mxCell id="I92HgwxgGMUfvTsr4K6W-84" value="Quiz berlangsung" style="rounded=1;whiteSpace=wrap;html=1;absoluteArcSize=1;arcSize=14;strokeWidth=2;" vertex="1" parent="WIyWlLk6GJQsqaUBKTNV-1">
          <mxGeometry x="-40" y="-800" width="80" height="40" as="geometry" />
        </mxCell>
        <mxCell id="I92HgwxgGMUfvTsr4K6W-109" style="edgeStyle=orthogonalEdgeStyle;rounded=0;orthogonalLoop=1;jettySize=auto;html=1;entryX=0;entryY=0.5;entryDx=0;entryDy=0;entryPerimeter=0;" edge="1" parent="WIyWlLk6GJQsqaUBKTNV-1" source="I92HgwxgGMUfvTsr4K6W-85" target="I92HgwxgGMUfvTsr4K6W-108">
          <mxGeometry relative="1" as="geometry">
            <Array as="points">
              <mxPoint y="-220" />
            </Array>
          </mxGeometry>
        </mxCell>
        <mxCell id="I92HgwxgGMUfvTsr4K6W-85" value="Hasil&lt;br&gt;Quiz" style="shape=parallelogram;html=1;strokeWidth=2;perimeter=parallelogramPerimeter;whiteSpace=wrap;rounded=1;arcSize=12;size=0.23;" vertex="1" parent="WIyWlLk6GJQsqaUBKTNV-1">
          <mxGeometry x="-40" y="-720" width="80" height="40" as="geometry" />
        </mxCell>
        <mxCell id="I92HgwxgGMUfvTsr4K6W-88" value="" style="edgeStyle=orthogonalEdgeStyle;rounded=0;orthogonalLoop=1;jettySize=auto;html=1;" edge="1" parent="WIyWlLk6GJQsqaUBKTNV-1" source="I92HgwxgGMUfvTsr4K6W-86">
          <mxGeometry relative="1" as="geometry">
            <mxPoint x="120" y="-400" as="targetPoint" />
          </mxGeometry>
        </mxCell>
        <mxCell id="I92HgwxgGMUfvTsr4K6W-86" value="Video &lt;br&gt;Stage 1" style="shape=parallelogram;html=1;strokeWidth=2;perimeter=parallelogramPerimeter;whiteSpace=wrap;rounded=1;arcSize=12;size=0.23;" vertex="1" parent="WIyWlLk6GJQsqaUBKTNV-1">
          <mxGeometry x="80" y="-475" width="80" height="40" as="geometry" />
        </mxCell>
        <mxCell id="I92HgwxgGMUfvTsr4K6W-90" value="" style="verticalLabelPosition=bottom;verticalAlign=top;html=1;shape=mxgraph.flowchart.on-page_reference;" vertex="1" parent="WIyWlLk6GJQsqaUBKTNV-1">
          <mxGeometry x="100" y="-320" width="40" height="40" as="geometry" />
        </mxCell>
        <mxCell id="I92HgwxgGMUfvTsr4K6W-91" value="1" style="text;html=1;align=center;verticalAlign=middle;resizable=0;points=[];autosize=1;strokeColor=none;fillColor=none;" vertex="1" parent="WIyWlLk6GJQsqaUBKTNV-1">
          <mxGeometry x="105" y="-315" width="30" height="30" as="geometry" />
        </mxCell>
        <mxCell id="I92HgwxgGMUfvTsr4K6W-92" value="" style="verticalLabelPosition=bottom;verticalAlign=top;html=1;shape=mxgraph.flowchart.on-page_reference;" vertex="1" parent="WIyWlLk6GJQsqaUBKTNV-1">
          <mxGeometry x="220" y="-320" width="40" height="40" as="geometry" />
        </mxCell>
        <mxCell id="I92HgwxgGMUfvTsr4K6W-93" value="2" style="text;html=1;align=center;verticalAlign=middle;resizable=0;points=[];autosize=1;strokeColor=none;fillColor=none;" vertex="1" parent="WIyWlLk6GJQsqaUBKTNV-1">
          <mxGeometry x="225" y="-315" width="30" height="30" as="geometry" />
        </mxCell>
        <mxCell id="I92HgwxgGMUfvTsr4K6W-96" value="" style="verticalLabelPosition=bottom;verticalAlign=top;html=1;shape=mxgraph.flowchart.on-page_reference;" vertex="1" parent="WIyWlLk6GJQsqaUBKTNV-1">
          <mxGeometry x="220" y="-920" width="40" height="40" as="geometry" />
        </mxCell>
        <mxCell id="I92HgwxgGMUfvTsr4K6W-97" value="1" style="text;html=1;align=center;verticalAlign=middle;resizable=0;points=[];autosize=1;strokeColor=none;fillColor=none;" vertex="1" parent="WIyWlLk6GJQsqaUBKTNV-1">
          <mxGeometry x="225" y="-915" width="30" height="30" as="geometry" />
        </mxCell>
        <mxCell id="I92HgwxgGMUfvTsr4K6W-98" value="" style="verticalLabelPosition=bottom;verticalAlign=top;html=1;shape=mxgraph.flowchart.on-page_reference;" vertex="1" parent="WIyWlLk6GJQsqaUBKTNV-1">
          <mxGeometry x="343" y="-920" width="40" height="40" as="geometry" />
        </mxCell>
        <mxCell id="I92HgwxgGMUfvTsr4K6W-99" value="2" style="text;html=1;align=center;verticalAlign=middle;resizable=0;points=[];autosize=1;strokeColor=none;fillColor=none;" vertex="1" parent="WIyWlLk6GJQsqaUBKTNV-1">
          <mxGeometry x="348" y="-915" width="30" height="30" as="geometry" />
        </mxCell>
        <mxCell id="I92HgwxgGMUfvTsr4K6W-104" style="edgeStyle=orthogonalEdgeStyle;rounded=0;orthogonalLoop=1;jettySize=auto;html=1;entryX=0.5;entryY=0;entryDx=0;entryDy=0;" edge="1" parent="WIyWlLk6GJQsqaUBKTNV-1" source="I92HgwxgGMUfvTsr4K6W-100" target="I92HgwxgGMUfvTsr4K6W-42">
          <mxGeometry relative="1" as="geometry" />
        </mxCell>
        <mxCell id="I92HgwxgGMUfvTsr4K6W-100" value="Video &lt;br&gt;Stage 2" style="shape=parallelogram;html=1;strokeWidth=2;perimeter=parallelogramPerimeter;whiteSpace=wrap;rounded=1;arcSize=12;size=0.23;" vertex="1" parent="WIyWlLk6GJQsqaUBKTNV-1">
          <mxGeometry x="200" y="-475" width="80" height="40" as="geometry" />
        </mxCell>
        <mxCell id="I92HgwxgGMUfvTsr4K6W-105" style="edgeStyle=orthogonalEdgeStyle;rounded=0;orthogonalLoop=1;jettySize=auto;html=1;entryX=0.5;entryY=0;entryDx=0;entryDy=0;" edge="1" parent="WIyWlLk6GJQsqaUBKTNV-1" source="I92HgwxgGMUfvTsr4K6W-101" target="I92HgwxgGMUfvTsr4K6W-73">
          <mxGeometry relative="1" as="geometry" />
        </mxCell>
        <mxCell id="I92HgwxgGMUfvTsr4K6W-101" value="Video &lt;br&gt;Stage 3" style="shape=parallelogram;html=1;strokeWidth=2;perimeter=parallelogramPerimeter;whiteSpace=wrap;rounded=1;arcSize=12;size=0.23;" vertex="1" parent="WIyWlLk6GJQsqaUBKTNV-1">
          <mxGeometry x="323" y="-475" width="80" height="40" as="geometry" />
        </mxCell>
        <mxCell id="I92HgwxgGMUfvTsr4K6W-108" value="Selesai" style="strokeWidth=2;html=1;shape=mxgraph.flowchart.terminator;whiteSpace=wrap;" vertex="1" parent="WIyWlLk6GJQsqaUBKTNV-1">
          <mxGeometry x="80" y="-240" width="80" height="40" as="geometry" />
        </mxCell>
      </root>
    </mxGraphModel>
  </diagram>
</mxfile>
